<?xml version='1.0' encoding='utf-8'?>
<svg xmlns="http://www.w3.org/2000/svg" version="1.1" width="35" height="36" viewBox="0 0 1141 1142"><g fill="currentColor" fill-rule="evenodd"><path d="M 674 928 L 674 931 L 676 934 L 676 936 L 683 949 L 683 951 L 690 964 L 690 966 L 698 981 L 698 983 L 705 996 L 705 998 L 708 1004 L 853 1004 L 853 1002 L 851 999 L 851 997 L 844 984 L 844 982 L 836 967 L 836 965 L 830 954 L 830 952 L 818 928 Z" /><path d="M 488 602 L 486 602 L 481 612 L 481 614 L 476 623 L 476 625 L 471 634 L 471 636 L 464 649 L 464 651 L 457 664 L 457 666 L 446 688 L 446 690 L 439 703 L 439 705 L 433 716 L 433 718 L 427 729 L 427 731 L 422 740 L 422 742 L 415 755 L 415 757 L 409 768 L 409 770 L 403 781 L 403 783 L 397 794 L 397 796 L 391 807 L 391 809 L 378 835 L 378 837 L 374 844 L 374 846 L 372 848 L 372 850 L 366 861 L 366 863 L 360 874 L 360 876 L 354 887 L 354 889 L 348 900 L 348 902 L 342 913 L 342 915 L 336 926 L 336 928 L 330 939 L 330 941 L 324 952 L 324 954 L 317 967 L 317 969 L 312 978 L 312 980 L 305 993 L 305 995 L 301 1002 L 301 1004 L 446 1004 L 451 994 L 451 992 L 457 981 L 457 979 L 463 968 L 463 966 L 469 955 L 469 953 L 474 944 L 474 942 L 480 931 L 480 929 L 486 918 L 486 916 L 492 905 L 492 903 L 497 894 L 497 892 L 503 881 L 503 879 L 509 868 L 509 866 L 515 855 L 515 853 L 520 844 L 520 842 L 526 831 L 526 829 L 532 818 L 532 816 L 537 807 L 537 805 L 543 794 L 543 792 L 549 781 L 549 779 L 558 761 L 558 756 L 557 755 L 557 753 L 552 744 L 552 742 L 547 733 L 547 731 L 541 720 L 541 718 L 536 709 L 536 707 L 531 698 L 531 696 L 529 694 L 529 692 L 525 685 L 525 683 L 514 661 L 514 659 L 509 650 L 509 648 L 504 639 L 504 637 L 498 626 L 498 624 L 493 615 L 493 613 L 488 604 Z" /><path d="M 699 139 L 696 145 L 696 147 L 690 158 L 690 160 L 684 171 L 684 173 L 678 184 L 678 186 L 672 197 L 672 199 L 659 225 L 659 227 L 653 238 L 653 240 L 646 253 L 646 255 L 641 264 L 641 266 L 634 279 L 634 281 L 622 305 L 622 307 L 615 320 L 615 322 L 603 346 L 603 348 L 597 359 L 597 361 L 595 364 L 595 369 L 604 387 L 604 389 L 610 400 L 610 402 L 615 411 L 615 413 L 621 424 L 621 426 L 628 439 L 628 441 L 633 450 L 633 452 L 638 461 L 638 463 L 640 465 L 640 467 L 646 478 L 646 480 L 658 504 L 658 506 L 663 515 L 663 517 L 666 523 L 669 523 L 669 521 L 673 514 L 673 512 L 677 505 L 677 503 L 682 494 L 682 492 L 686 485 L 686 483 L 691 474 L 691 472 L 695 465 L 695 463 L 699 455 L 701 453 L 702 454 L 703 458 L 709 469 L 709 471 L 720 493 L 720 495 L 727 508 L 727 510 L 732 519 L 732 521 L 738 532 L 738 534 L 749 556 L 749 558 L 756 571 L 756 573 L 762 584 L 762 586 L 768 597 L 768 599 L 780 623 L 780 625 L 785 634 L 785 636 L 790 645 L 790 647 L 792 649 L 792 651 L 798 662 L 798 664 L 803 673 L 803 675 L 809 686 L 809 688 L 815 699 L 815 701 L 821 712 L 821 714 L 827 725 L 827 727 L 839 751 L 839 753 L 844 762 L 844 764 L 849 773 L 849 775 L 848 776 L 583 776 L 573 796 L 573 798 L 566 811 L 566 813 L 559 826 L 559 828 L 553 839 L 553 841 L 546 854 L 546 856 L 540 867 L 540 869 L 533 882 L 533 884 L 527 895 L 527 897 L 905 897 L 907 899 L 910 905 L 910 907 L 916 918 L 916 920 L 928 944 L 928 946 L 933 955 L 933 957 L 939 968 L 939 970 L 945 981 L 945 983 L 951 994 L 951 996 L 955 1004 L 1101 1004 L 1101 1001 L 1095 990 L 1095 988 L 1089 977 L 1089 975 L 1082 962 L 1082 960 L 1076 949 L 1076 947 L 1071 938 L 1071 936 L 1069 934 L 1069 932 L 1064 923 L 1064 921 L 1058 910 L 1058 908 L 1052 897 L 1052 895 L 1046 884 L 1046 882 L 1040 871 L 1040 869 L 1033 856 L 1033 854 L 1027 843 L 1027 841 L 1021 830 L 1021 828 L 1015 817 L 1015 815 L 1008 802 L 1008 800 L 1002 789 L 1002 787 L 996 776 L 996 774 L 990 763 L 990 761 L 984 750 L 984 748 L 978 737 L 978 735 L 972 724 L 972 722 L 965 709 L 965 707 L 959 696 L 959 694 L 953 683 L 953 681 L 947 670 L 947 668 L 941 657 L 941 655 L 935 644 L 935 642 L 921 614 L 921 612 L 916 603 L 916 601 L 910 590 L 910 588 L 904 577 L 904 575 L 898 564 L 898 562 L 891 549 L 891 547 L 885 536 L 885 534 L 879 523 L 879 521 L 873 510 L 873 508 L 867 497 L 867 495 L 860 482 L 860 480 L 854 469 L 854 467 L 848 456 L 848 454 L 842 443 L 842 441 L 836 430 L 836 428 L 830 417 L 830 415 L 824 404 L 824 402 L 817 389 L 817 387 L 811 376 L 811 374 L 805 363 L 805 361 L 799 350 L 799 348 L 793 337 L 793 335 L 786 322 L 786 320 L 780 309 L 780 307 L 775 298 L 775 296 L 773 294 L 773 292 L 768 283 L 768 281 L 762 270 L 762 268 L 756 257 L 756 255 L 750 244 L 750 242 L 743 229 L 743 227 L 736 214 L 736 212 L 725 190 L 725 188 L 719 177 L 719 175 L 712 162 L 712 160 L 706 149 L 706 147 L 702 139 Z" /><path d="M 454 139 L 451 139 L 447 147 L 447 149 L 441 160 L 441 162 L 435 173 L 435 175 L 429 186 L 429 188 L 423 199 L 423 201 L 411 225 L 411 227 L 406 236 L 406 238 L 400 249 L 400 251 L 393 264 L 393 266 L 388 275 L 388 277 L 382 288 L 382 290 L 376 301 L 376 303 L 370 314 L 370 316 L 364 327 L 364 329 L 358 340 L 358 342 L 352 353 L 352 355 L 346 366 L 346 368 L 334 392 L 334 394 L 329 403 L 329 405 L 323 416 L 323 418 L 317 429 L 317 431 L 310 444 L 310 446 L 305 455 L 305 457 L 299 468 L 299 470 L 293 481 L 293 483 L 287 494 L 287 496 L 281 507 L 281 509 L 275 520 L 275 522 L 269 533 L 269 535 L 263 546 L 263 548 L 257 559 L 257 561 L 251 572 L 251 574 L 239 598 L 239 600 L 234 609 L 234 611 L 227 624 L 227 626 L 222 635 L 222 637 L 215 650 L 215 652 L 210 661 L 210 663 L 204 674 L 204 676 L 198 687 L 198 689 L 192 700 L 192 702 L 186 713 L 186 715 L 180 726 L 180 728 L 174 739 L 174 741 L 162 765 L 162 767 L 157 776 L 157 778 L 151 789 L 151 791 L 145 802 L 145 804 L 138 817 L 138 819 L 127 841 L 127 843 L 122 852 L 122 854 L 115 867 L 115 869 L 109 880 L 109 882 L 103 893 L 103 895 L 97 906 L 97 908 L 85 932 L 85 934 L 74 956 L 74 958 L 68 969 L 68 971 L 63 980 L 63 982 L 56 995 L 56 997 L 53 1002 L 53 1004 L 198 1004 L 202 996 L 202 994 L 208 983 L 208 981 L 214 970 L 214 968 L 220 957 L 220 955 L 225 946 L 225 944 L 231 933 L 231 931 L 237 920 L 237 918 L 243 907 L 243 905 L 246 899 L 248 897 L 319 897 L 320 896 L 326 884 L 326 882 L 332 871 L 332 869 L 339 856 L 339 854 L 345 843 L 345 841 L 352 828 L 352 826 L 359 813 L 359 811 L 366 798 L 366 796 L 372 785 L 372 783 L 375 778 L 375 776 L 305 776 L 304 775 L 304 773 L 308 766 L 308 764 L 314 753 L 314 751 L 320 740 L 320 738 L 326 727 L 326 725 L 332 714 L 332 712 L 338 701 L 338 699 L 344 688 L 344 686 L 356 662 L 356 660 L 361 651 L 361 649 L 367 638 L 367 636 L 373 625 L 373 623 L 379 612 L 379 610 L 385 599 L 385 597 L 391 586 L 391 584 L 397 573 L 397 571 L 403 560 L 403 558 L 409 547 L 409 545 L 415 534 L 415 532 L 420 523 L 420 521 L 427 508 L 427 506 L 433 495 L 433 493 L 438 484 L 438 482 L 444 471 L 444 469 L 452 453 L 454 455 L 460 467 L 460 469 L 466 480 L 466 482 L 473 495 L 473 497 L 479 508 L 479 510 L 492 536 L 492 538 L 499 551 L 499 553 L 505 564 L 505 566 L 518 592 L 518 594 L 531 620 L 531 622 L 537 633 L 537 635 L 544 648 L 544 650 L 550 661 L 550 663 L 556 674 L 556 676 L 563 689 L 563 691 L 570 704 L 570 706 L 576 717 L 576 719 L 583 732 L 583 734 L 587 742 L 588 743 L 732 743 L 732 740 L 729 735 L 729 733 L 723 722 L 723 720 L 721 718 L 721 716 L 716 707 L 716 705 L 710 694 L 710 692 L 704 681 L 704 679 L 698 668 L 698 666 L 692 655 L 692 653 L 686 642 L 686 640 L 679 627 L 679 625 L 673 614 L 673 612 L 667 601 L 667 599 L 661 588 L 661 586 L 654 573 L 654 571 L 649 562 L 649 560 L 642 547 L 642 545 L 636 534 L 636 532 L 630 521 L 630 519 L 624 508 L 624 506 L 618 495 L 618 493 L 612 482 L 612 480 L 605 467 L 605 465 L 599 454 L 599 452 L 593 441 L 593 439 L 586 426 L 586 424 L 580 413 L 580 411 L 575 402 L 575 400 L 573 398 L 573 396 L 568 387 L 568 385 L 562 374 L 562 372 L 556 361 L 556 359 L 550 348 L 550 346 L 543 333 L 543 331 L 537 320 L 537 318 L 531 307 L 531 305 L 525 294 L 525 292 L 519 281 L 519 279 L 512 266 L 512 264 L 506 253 L 506 251 L 500 240 L 500 238 L 494 227 L 494 225 L 488 214 L 488 212 L 482 201 L 482 199 L 476 188 L 476 186 L 469 173 L 469 171 L 463 160 L 463 158 L 457 147 L 457 145 Z" /></g></svg>